<?xml version="1.0" encoding="UTF-8" standalone="no"?>
<!-- Created with Inkscape (http://www.inkscape.org/) -->

<svg
   xmlns:dc="http://purl.org/dc/elements/1.1/"
   xmlns:cc="http://creativecommons.org/ns#"
   xmlns:rdf="http://www.w3.org/1999/02/22-rdf-syntax-ns#"
   xmlns:svg="http://www.w3.org/2000/svg"
   xmlns="http://www.w3.org/2000/svg"
   xmlns:sodipodi="http://sodipodi.sourceforge.net/DTD/sodipodi-0.dtd"
   xmlns:inkscape="http://www.inkscape.org/namespaces/inkscape"
   width="132.43135mm"
   height="60.164421mm"
   viewBox="0 0 132.43135 60.164422"
   version="1.1"
   id="svg8"
   inkscape:version="0.92.1 r15371"
   sodipodi:docname="DDU.svg">
  <defs
     id="defs2" />
  <sodipodi:namedview
     id="base"
     pagecolor="#ffffff"
     bordercolor="#666666"
     borderopacity="1.0"
     inkscape:pageopacity="0.0"
     inkscape:pageshadow="2"
     inkscape:zoom="1.4"
     inkscape:cx="419.07343"
     inkscape:cy="-4.3223442"
     inkscape:document-units="mm"
     inkscape:current-layer="g4660"
     showgrid="false"
     fit-margin-top="0"
     fit-margin-left="0"
     fit-margin-right="0"
     fit-margin-bottom="0"
     inkscape:window-width="2560"
     inkscape:window-height="1547"
     inkscape:window-x="2552"
     inkscape:window-y="-8"
     inkscape:window-maximized="1" />
  <metadata
     id="metadata5">
    <rdf:RDF>
      <cc:Work
         rdf:about="">
        <dc:format>image/svg+xml</dc:format>
        <dc:type
           rdf:resource="http://purl.org/dc/dcmitype/StillImage" />
        <dc:title></dc:title>
      </cc:Work>
    </rdf:RDF>
  </metadata>
  <g
     inkscape:label="Capa 1"
     inkscape:groupmode="layer"
     id="layer1"
     transform="translate(-28.767943,-130.13505)">
    <path
       style="opacity:1;vector-effect:none;fill:#1263ae;fill-opacity:1;stroke:none;stroke-width:0.42996433;stroke-linecap:round;stroke-linejoin:miter;stroke-miterlimit:4;stroke-dasharray:none;stroke-dashoffset:0;stroke-opacity:1"
       d="M 28.767943,130.13505 H 161.1993 v 60.16442 H 28.767943 Z"
       id="rect4543"
       inkscape:connector-curvature="0" />
    <g
       id="g4660"
       transform="translate(-171.75086,-171.84537)">
      <path
         inkscape:connector-curvature="0"
         id="path4507"
         d="m 239.8178,306.82236 -26.04913,0.0796 -3.99625,3.91641 -2.95923,17.93001 4.63238,-4.63213 11.02119,0.0822 0.80446,-4.58214 13.5912,0.0596 c 4.4499,1.86857 5.17415,7.16784 4.93572,11.84395 -0.31297,6.13727 -2.77165,11.669 -5.52752,11.65103 l -27.95089,-0.0861 -4.82813,5.07134 -1.22012,7.25337 35.03181,-0.0513 c 8.69805,-1.8082 14.6228,-11.7655 15.24182,-23.63782 0.48759,-9.3522 -2.82364,-21.39339 -12.72732,-24.89761 z m -4.01794,19.68249 -10.49143,0.002 -1.52951,9.02361 -3.21136,-0.0164 1.51478,-9.00726 -10.91275,0.002 -4.72349,4.5286 -2.24242,13.24257 4.5764,-4.31187 23.95418,0.0243 c 2.70343,-2.38078 4.77863,-9.41585 3.06559,-13.49429 z"
         style="opacity:1;vector-effect:none;fill:#e39d17;fill-opacity:1;stroke:none;stroke-width:0.22430675px;stroke-linecap:round;stroke-linejoin:miter;stroke-miterlimit:4;stroke-dasharray:none;stroke-dashoffset:0;stroke-opacity:1" />
      <g
         id="text4539"
         style="font-style:normal;font-weight:normal;font-size:7.26413345px;line-height:1.25;font-family:sans-serif;letter-spacing:0px;word-spacing:0px;fill:#e09e18;fill-opacity:1;stroke:none;stroke-width:0.18160333"
         transform="scale(0.9679538,1.0331072)"
         aria-label="Defensoría de los Derechos Universitarios">
        <g
           aria-label="Defensoría
de los
Derechos
Universitarios"
           transform="scale(1.0331072,0.96795377)"
           style="font-style:normal;font-weight:normal;font-size:10.58333302px;line-height:1.25;font-family:sans-serif;letter-spacing:0px;word-spacing:0px;fill:#e39d17;fill-opacity:1;stroke:none;stroke-width:0.04804921"
           id="text4525">
          <path
             d="m 264.93863,312.57017 q 0,1.04903 -0.45992,1.90169 -0.45475,0.85266 -1.2144,1.32292 -0.5271,0.32556 -1.17822,0.47025 -0.64596,0.1447 -1.70532,0.1447 h -1.94304 v -7.69462 h 1.92237 q 1.12654,0 1.788,0.16536 0.66663,0.1602 1.12655,0.44442 0.78548,0.49093 1.22473,1.30741 0.43925,0.81649 0.43925,1.93787 z m -1.0697,-0.0155 q 0,-0.90434 -0.31523,-1.52446 -0.31523,-0.62011 -0.94051,-0.97668 -0.45475,-0.25838 -0.96635,-0.35657 -0.5116,-0.10335 -1.22473,-0.10335 h -0.96118 v 5.93762 h 0.96118 q 0.73897,0 1.28674,-0.10852 0.55294,-0.10852 1.01286,-0.40308 0.57361,-0.3669 0.85783,-0.96635 0.28939,-0.59944 0.28939,-1.49861 z"
             style="fill:#e39d17;fill-opacity:1;stroke-width:0.04804921"
             id="path4533" />
          <path
             d="m 271.35684,313.62437 h -4.25297 q 0,0.53227 0.1602,0.93018 0.1602,0.39274 0.43925,0.64595 0.26872,0.24805 0.63562,0.37207 0.37207,0.12402 0.81649,0.12402 0.58911,0 1.18339,-0.23254 0.59944,-0.23771 0.85266,-0.46509 h 0.0517 v 1.05937 q -0.49092,0.2067 -1.00252,0.34623 -0.5116,0.13953 -1.07487,0.13953 -1.4366,0 -2.24276,-0.77515 -0.80615,-0.78031 -0.80615,-2.21175 0,-1.41593 0.76998,-2.24792 0.77515,-0.832 2.03605,-0.832 1.16789,0 1.79834,0.68213 0.63562,0.68213 0.63562,1.93787 z m -0.94568,-0.74414 q -0.005,-0.76481 -0.38757,-1.18339 -0.37724,-0.41858 -1.15238,-0.41858 -0.78032,0 -1.24541,0.45992 -0.45992,0.45992 -0.52193,1.14205 z"
             style="fill:#e39d17;fill-opacity:1;stroke-width:0.04804921"
             id="path4535" />
          <path
             d="m 275.93537,309.30939 h -0.0517 q -0.1602,-0.0465 -0.41858,-0.093 -0.25838,-0.0517 -0.45475,-0.0517 -0.62529,0 -0.90951,0.27906 -0.27905,0.27388 -0.27905,0.99735 v 0.19637 h 1.75183 v 0.81649 h -1.72083 v 4.95577 h -0.97151 v -4.95577 h -0.65629 v -0.81649 h 0.65629 v -0.1912 q 0,-1.02836 0.51159,-1.57613 0.5116,-0.55294 1.47795,-0.55294 0.32556,0 0.58394,0.031 0.26355,0.031 0.48059,0.0723 z"
             style="fill:#e39d17;fill-opacity:1;stroke-width:0.04804921"
             id="path4537" />
          <path
             d="m 281.38207,313.62437 h -4.25297 q 0,0.53227 0.1602,0.93018 0.16019,0.39274 0.43925,0.64595 0.26871,0.24805 0.63562,0.37207 0.37207,0.12402 0.81648,0.12402 0.58911,0 1.18339,-0.23254 0.59945,-0.23771 0.85266,-0.46509 h 0.0517 v 1.05937 q -0.49093,0.2067 -1.00252,0.34623 -0.5116,0.13953 -1.07487,0.13953 -1.43661,0 -2.24276,-0.77515 -0.80615,-0.78031 -0.80615,-2.21175 0,-1.41593 0.76998,-2.24792 0.77514,-0.832 2.03605,-0.832 1.16789,0 1.79834,0.68213 0.63562,0.68213 0.63562,1.93787 z m -0.94568,-0.74414 q -0.005,-0.76481 -0.38757,-1.18339 -0.37724,-0.41858 -1.15239,-0.41858 -0.78031,0 -1.2454,0.45992 -0.45992,0.45992 -0.52193,1.14205 z"
             style="fill:#e39d17;fill-opacity:1;stroke-width:0.04804921"
             id="path4539" />
          <path
             d="m 287.68143,316.40973 h -0.97152 v -3.28662 q 0,-0.39791 -0.0465,-0.74414 -0.0465,-0.3514 -0.17053,-0.54777 -0.12919,-0.21704 -0.37207,-0.3204 -0.24288,-0.10852 -0.63045,-0.10852 -0.39791,0 -0.83199,0.19637 -0.43409,0.19637 -0.83199,0.50126 v 4.30982 h -0.97152 v -5.77226 h 0.97152 v 0.64079 q 0.45475,-0.37724 0.94051,-0.58911 0.48575,-0.21188 0.99735,-0.21188 0.93534,0 1.42627,0.56328 0.49093,0.56327 0.49093,1.62264 z"
             style="fill:#e39d17;fill-opacity:1;stroke-width:0.04804921"
             id="path4541" />
          <path
             d="m 293.67589,314.74575 q 0,0.79065 -0.65629,1.29708 -0.65112,0.50643 -1.78283,0.50643 -0.64079,0 -1.17823,-0.14987 -0.53226,-0.15503 -0.894,-0.33589 v -1.09038 h 0.0517 q 0.45992,0.34624 1.02319,0.55294 0.56327,0.20154 1.08004,0.20154 0.64079,0 1.00252,-0.20671 0.36174,-0.2067 0.36174,-0.65112 0,-0.34106 -0.19637,-0.51676 -0.19638,-0.1757 -0.75448,-0.29973 -0.20671,-0.0465 -0.5426,-0.10852 -0.33073,-0.062 -0.60462,-0.13436 -0.75964,-0.20153 -1.08003,-0.58911 -0.31523,-0.39274 -0.31523,-0.96118 0,-0.35657 0.14469,-0.67179 0.14986,-0.31523 0.44959,-0.56328 0.28939,-0.24287 0.7338,-0.3824 0.44959,-0.14469 1.00253,-0.14469 0.51676,0 1.04386,0.12919 0.53227,0.12402 0.88367,0.30489 v 1.03869 h -0.0517 q -0.37207,-0.27388 -0.90434,-0.45992 -0.53226,-0.1912 -1.04386,-0.1912 -0.53227,0 -0.89917,0.20671 -0.3669,0.20153 -0.3669,0.60461 0,0.35657 0.2222,0.53744 0.21705,0.18086 0.7028,0.29455 0.26872,0.062 0.59945,0.12402 0.3359,0.062 0.55811,0.11369 0.67696,0.15503 1.04386,0.53227 0.3669,0.38241 0.3669,1.01286 z"
             style="fill:#e39d17;fill-opacity:1;stroke-width:0.04804921"
             id="path4543" />
          <path
             d="m 299.99075,313.52618 q 0,1.41077 -0.72347,2.22726 -0.72347,0.81649 -1.93786,0.81649 -1.22473,0 -1.9482,-0.81649 -0.71831,-0.81649 -0.71831,-2.22726 0,-1.41076 0.71831,-2.22725 0.72347,-0.82166 1.9482,-0.82166 1.21439,0 1.93786,0.82166 0.72347,0.81649 0.72347,2.22725 z m -1.00252,0 q 0,-1.12137 -0.43925,-1.66398 -0.43925,-0.54777 -1.21956,-0.54777 -0.79065,0 -1.2299,0.54777 -0.43408,0.54261 -0.43408,1.66398 0,1.08521 0.43925,1.64848 0.43925,0.55811 1.22473,0.55811 0.77514,0 1.21439,-0.55294 0.44442,-0.55811 0.44442,-1.65365 z"
             style="fill:#e39d17;fill-opacity:1;stroke-width:0.04804921"
             id="path4545" />
          <path
             d="m 305.10155,311.69684 h -0.0517 q -0.21704,-0.0517 -0.42374,-0.0724 -0.20154,-0.0258 -0.48059,-0.0258 -0.44959,0 -0.86817,0.20154 -0.41858,0.19637 -0.80615,0.5116 v 4.09794 h -0.97152 v -5.77226 h 0.97152 v 0.85266 q 0.57878,-0.46509 1.01803,-0.65629 0.44441,-0.19637 0.90433,-0.19637 0.25322,0 0.36691,0.0155 0.11368,0.0103 0.34106,0.0465 z"
             style="fill:#e39d17;fill-opacity:1;stroke-width:0.04804921"
             id="path4547" />
          <path
             d="m 307.00841,316.40973 h -0.97152 v -5.77226 h 0.97152 z m 1.0697,-8.66097 -1.41076,1.9327 h -0.76998 l 0.92501,-1.9327 z"
             style="fill:#e39d17;fill-opacity:1;stroke-width:0.04804921"
             id="path4549" />
          <path
             d="m 313.38528,316.40973 h -0.96634 v -0.61495 q -0.1292,0.0879 -0.3514,0.24805 -0.21705,0.15503 -0.42375,0.24804 -0.24288,0.11886 -0.55811,0.19637 -0.31522,0.0827 -0.73897,0.0827 -0.78031,0 -1.32292,-0.51677 -0.5426,-0.51676 -0.5426,-1.31775 0,-0.65629 0.27905,-1.05936 0.28422,-0.40825 0.80616,-0.64079 0.5271,-0.23255 1.26607,-0.31523 0.73897,-0.0827 1.58647,-0.12402 v -0.14986 q 0,-0.33073 -0.11886,-0.54777 -0.11369,-0.21704 -0.33073,-0.34107 -0.20671,-0.11885 -0.49609,-0.16019 -0.28939,-0.0413 -0.60462,-0.0413 -0.3824,0 -0.85266,0.10336 -0.47025,0.0982 -0.97152,0.28938 h -0.0517 v -0.98701 q 0.28422,-0.0775 0.82165,-0.17054 0.53744,-0.093 1.05937,-0.093 0.60978,0 1.05937,0.10335 0.45475,0.0982 0.78548,0.34106 0.32556,0.23771 0.49609,0.61495 0.17053,0.37724 0.17053,0.93535 z m -0.96634,-1.4211 v -1.60714 q -0.44442,0.0258 -1.04904,0.0775 -0.59944,0.0517 -0.95084,0.14987 -0.41858,0.11885 -0.67696,0.37207 -0.25839,0.24804 -0.25839,0.68729 0,0.4961 0.29973,0.74931 0.29972,0.24805 0.91467,0.24805 0.5116,0 0.93534,-0.19637 0.42375,-0.20154 0.78549,-0.48059 z"
             style="fill:#e39d17;fill-opacity:1;stroke-width:0.04804921"
             id="path4551" />
          <path
             d="m 263.0421,329.6389 h -0.97151 v -0.60462 q -0.41858,0.36174 -0.87333,0.56327 -0.45476,0.20154 -0.98702,0.20154 -1.03353,0 -1.64331,-0.79581 -0.60462,-0.79582 -0.60462,-2.20659 0,-0.7338 0.20671,-1.30741 0.21187,-0.57361 0.56844,-0.97669 0.3514,-0.39274 0.81648,-0.59944 0.47026,-0.20671 0.97152,-0.20671 0.45475,0 0.80615,0.0982 0.3514,0.093 0.73898,0.29455 v -2.50114 h 0.97151 z m -0.97151,-1.42111 v -3.31246 q -0.39274,-0.1757 -0.7028,-0.24288 -0.31006,-0.0672 -0.67696,-0.0672 -0.81649,0 -1.27124,0.56844 -0.45476,0.56844 -0.45476,1.6123 0,1.02836 0.3514,1.5658 0.3514,0.53226 1.12655,0.53226 0.41341,0 0.83716,-0.18086 0.42374,-0.18604 0.79065,-0.47543 z"
             style="fill:#e39d17;fill-opacity:1;stroke-width:0.04804921"
             id="path4553" />
          <path
             d="m 269.78588,326.85354 h -4.25297 q 0,0.53226 0.16019,0.93017 0.1602,0.39274 0.43925,0.64596 0.26872,0.24804 0.63562,0.37207 0.37207,0.12402 0.81649,0.12402 0.58911,0 1.18339,-0.23254 0.59945,-0.23771 0.85266,-0.46509 h 0.0517 v 1.05937 q -0.49093,0.2067 -1.00252,0.34623 -0.5116,0.13952 -1.07487,0.13952 -1.43661,0 -2.24276,-0.77514 -0.80615,-0.78032 -0.80615,-2.21175 0,-1.41594 0.76998,-2.24793 0.77514,-0.83199 2.03605,-0.83199 1.16789,0 1.79834,0.68213 0.63562,0.68213 0.63562,1.93787 z m -0.94568,-0.74414 q -0.005,-0.76482 -0.38757,-1.1834 -0.37724,-0.41857 -1.15239,-0.41857 -0.78031,0 -1.2454,0.45992 -0.45992,0.45992 -0.52193,1.14205 z"
             style="fill:#e39d17;fill-opacity:1;stroke-width:0.04804921"
             id="path4555" />
          <path
             d="m 275.96121,329.6389 h -0.97151 v -8.04086 h 0.97151 z"
             style="fill:#e39d17;fill-opacity:1;stroke-width:0.04804921"
             id="path4557" />
          <path
             d="m 282.77217,326.75535 q 0,1.41077 -0.72347,2.22725 -0.72347,0.81649 -1.93787,0.81649 -1.22473,0 -1.9482,-0.81649 -0.7183,-0.81648 -0.7183,-2.22725 0,-1.41077 0.7183,-2.22725 0.72347,-0.82166 1.9482,-0.82166 1.2144,0 1.93787,0.82166 0.72347,0.81648 0.72347,2.22725 z m -1.00253,0 q 0,-1.12138 -0.43925,-1.66398 -0.43925,-0.54777 -1.21956,-0.54777 -0.79065,0 -1.2299,0.54777 -0.43408,0.5426 -0.43408,1.66398 0,1.08521 0.43925,1.64848 0.43925,0.5581 1.22473,0.5581 0.77515,0 1.2144,-0.55293 0.44441,-0.55811 0.44441,-1.65365 z"
             style="fill:#e39d17;fill-opacity:1;stroke-width:0.04804921"
             id="path4559" />
          <path
             d="m 288.4049,327.97491 q 0,0.79065 -0.65629,1.29708 -0.65113,0.50643 -1.78284,0.50643 -0.64079,0 -1.17822,-0.14986 -0.53227,-0.15503 -0.89401,-0.3359 v -1.09037 h 0.0517 q 0.45992,0.34623 1.02319,0.55294 0.56328,0.20154 1.08004,0.20154 0.64079,0 1.00252,-0.20671 0.36174,-0.20671 0.36174,-0.65112 0,-0.34107 -0.19637,-0.51677 -0.19637,-0.1757 -0.75448,-0.29972 -0.2067,-0.0465 -0.5426,-0.10852 -0.33073,-0.062 -0.60461,-0.13436 -0.75965,-0.20154 -1.08004,-0.58911 -0.31523,-0.39274 -0.31523,-0.96118 0,-0.35657 0.1447,-0.6718 0.14986,-0.31522 0.44958,-0.56327 0.28939,-0.24288 0.73381,-0.3824 0.44958,-0.1447 1.00252,-0.1447 0.51676,0 1.04386,0.12919 0.53227,0.12403 0.88367,0.30489 v 1.0387 h -0.0517 q -0.37207,-0.27389 -0.90433,-0.45992 -0.53227,-0.1912 -1.04387,-0.1912 -0.53226,0 -0.89917,0.2067 -0.3669,0.20154 -0.3669,0.60462 0,0.35656 0.22221,0.53743 0.21704,0.18087 0.7028,0.29456 0.26872,0.062 0.59944,0.12402 0.3359,0.062 0.55811,0.11369 0.67696,0.15503 1.04386,0.53227 0.36691,0.3824 0.36691,1.01285 z"
             style="fill:#e39d17;fill-opacity:1;stroke-width:0.04804921"
             id="path4561" />
          <path
             d="m 264.93863,339.0285 q 0,1.04903 -0.45992,1.9017 -0.45475,0.85266 -1.2144,1.32291 -0.5271,0.32556 -1.17822,0.47026 -0.64596,0.14469 -1.70532,0.14469 h -1.94304 v -7.69462 h 1.92237 q 1.12654,0 1.788,0.16537 0.66663,0.16019 1.12655,0.44441 0.78548,0.49093 1.22473,1.30742 0.43925,0.81648 0.43925,1.93786 z m -1.0697,-0.0155 q 0,-0.90434 -0.31523,-1.52445 -0.31523,-0.62012 -0.94051,-0.97669 -0.45475,-0.25838 -0.96635,-0.35657 -0.5116,-0.10335 -1.22473,-0.10335 h -0.96118 v 5.93762 h 0.96118 q 0.73897,0 1.28674,-0.10852 0.55294,-0.10852 1.01286,-0.40307 0.57361,-0.36691 0.85783,-0.96635 0.28939,-0.59945 0.28939,-1.49862 z"
             style="fill:#e39d17;fill-opacity:1;stroke-width:0.04804921"
             id="path4563" />
          <path
             d="m 271.35684,340.0827 h -4.25297 q 0,0.53227 0.1602,0.93018 0.1602,0.39274 0.43925,0.64595 0.26872,0.24805 0.63562,0.37207 0.37207,0.12403 0.81649,0.12403 0.58911,0 1.18339,-0.23255 0.59944,-0.23771 0.85266,-0.46509 h 0.0517 v 1.05937 q -0.49092,0.20671 -1.00252,0.34623 -0.5116,0.13953 -1.07487,0.13953 -1.4366,0 -2.24276,-0.77515 -0.80615,-0.78031 -0.80615,-2.21175 0,-1.41593 0.76998,-2.24792 0.77515,-0.83199 2.03605,-0.83199 1.16789,0 1.79834,0.68213 0.63562,0.68213 0.63562,1.93786 z m -0.94568,-0.74414 q -0.005,-0.76481 -0.38757,-1.18339 -0.37724,-0.41858 -1.15238,-0.41858 -0.78032,0 -1.24541,0.45992 -0.45992,0.45992 -0.52193,1.14205 z"
             style="fill:#e39d17;fill-opacity:1;stroke-width:0.04804921"
             id="path4565" />
          <path
             d="m 276.43147,338.15517 h -0.0517 q -0.21704,-0.0517 -0.42375,-0.0723 -0.20153,-0.0258 -0.48059,-0.0258 -0.44958,0 -0.86816,0.20153 -0.41858,0.19637 -0.80615,0.5116 v 4.09794 h -0.97152 v -5.77226 h 0.97152 v 0.85267 q 0.57877,-0.46509 1.01802,-0.6563 0.44442,-0.19637 0.90434,-0.19637 0.25321,0 0.3669,0.0155 0.11369,0.0103 0.34107,0.0465 z"
             style="fill:#e39d17;fill-opacity:1;stroke-width:0.04804921"
             id="path4567" />
          <path
             d="m 282.18822,340.0827 h -4.25297 q 0,0.53227 0.1602,0.93018 0.1602,0.39274 0.43925,0.64595 0.26872,0.24805 0.63562,0.37207 0.37207,0.12403 0.81649,0.12403 0.58911,0 1.18339,-0.23255 0.59944,-0.23771 0.85266,-0.46509 h 0.0517 v 1.05937 q -0.49092,0.20671 -1.00252,0.34623 -0.5116,0.13953 -1.07487,0.13953 -1.4366,0 -2.24276,-0.77515 -0.80615,-0.78031 -0.80615,-2.21175 0,-1.41593 0.76998,-2.24792 0.77515,-0.83199 2.03605,-0.83199 1.16789,0 1.79834,0.68213 0.63562,0.68213 0.63562,1.93786 z m -0.94568,-0.74414 q -0.005,-0.76481 -0.38757,-1.18339 -0.37724,-0.41858 -1.15238,-0.41858 -0.78032,0 -1.24541,0.45992 -0.45992,0.45992 -0.52193,1.14205 z"
             style="fill:#e39d17;fill-opacity:1;stroke-width:0.04804921"
             id="path4569" />
          <path
             d="m 287.92947,342.50633 q -0.48575,0.23254 -0.925,0.36173 -0.43409,0.12919 -0.92501,0.12919 -0.62529,0 -1.14722,-0.18086 -0.52193,-0.18604 -0.894,-0.55811 -0.37724,-0.37207 -0.58395,-0.94051 -0.2067,-0.56844 -0.2067,-1.32809 0,-1.41593 0.77515,-2.22208 0.78031,-0.80615 2.05672,-0.80615 0.49609,0 0.97151,0.13952 0.4806,0.13953 0.8785,0.34107 v 1.08003 h -0.0517 q -0.44442,-0.34623 -0.91984,-0.53226 -0.47026,-0.18604 -0.91984,-0.18604 -0.82683,0 -1.30742,0.55811 -0.47542,0.55293 -0.47542,1.6278 0,1.04387 0.46509,1.60714 0.47025,0.55811 1.31775,0.55811 0.29455,0 0.59944,-0.0775 0.30489,-0.0775 0.54777,-0.20154 0.21188,-0.10852 0.39791,-0.22737 0.18604,-0.12403 0.29456,-0.21188 h 0.0517 z"
             style="fill:#e39d17;fill-opacity:1;stroke-width:0.04804921"
             id="path4571" />
          <path
             d="m 294.00662,342.86806 h -0.97151 v -3.28662 q 0,-0.39791 -0.0465,-0.74414 -0.0465,-0.3514 -0.17054,-0.54777 -0.12919,-0.21704 -0.37207,-0.32039 -0.24288,-0.10852 -0.63045,-0.10852 -0.39791,0 -0.83199,0.19637 -0.43408,0.19637 -0.83199,0.50126 v 4.30981 h -0.97152 v -8.04085 h 0.97152 v 2.90938 q 0.45475,-0.37724 0.94051,-0.58911 0.48576,-0.21187 0.99736,-0.21187 0.93534,0 1.42627,0.56327 0.49092,0.56327 0.49092,1.62264 z"
             style="fill:#e39d17;fill-opacity:1;stroke-width:0.04804921"
             id="path4573" />
          <path
             d="m 300.79691,339.98452 q 0,1.41076 -0.72347,2.22725 -0.72347,0.81649 -1.93787,0.81649 -1.22473,0 -1.9482,-0.81649 -0.7183,-0.81649 -0.7183,-2.22725 0,-1.41077 0.7183,-2.22726 0.72347,-0.82165 1.9482,-0.82165 1.2144,0 1.93787,0.82165 0.72347,0.81649 0.72347,2.22726 z m -1.00253,0 q 0,-1.12138 -0.43925,-1.66398 -0.43925,-0.54777 -1.21956,-0.54777 -0.79065,0 -1.2299,0.54777 -0.43408,0.5426 -0.43408,1.66398 0,1.0852 0.43925,1.64847 0.43925,0.55811 1.22473,0.55811 0.77515,0 1.2144,-0.55294 0.44441,-0.5581 0.44441,-1.65364 z"
             style="fill:#e39d17;fill-opacity:1;stroke-width:0.04804921"
             id="path4575" />
          <path
             d="m 306.42964,341.20408 q 0,0.79065 -0.6563,1.29708 -0.65112,0.50643 -1.78283,0.50643 -0.64079,0 -1.17822,-0.14986 -0.53227,-0.15503 -0.89401,-0.3359 v -1.09037 h 0.0517 q 0.45992,0.34623 1.02319,0.55293 0.56328,0.20154 1.08004,0.20154 0.64079,0 1.00252,-0.2067 0.36174,-0.20671 0.36174,-0.65113 0,-0.34106 -0.19637,-0.51676 -0.19637,-0.1757 -0.75448,-0.29972 -0.2067,-0.0465 -0.5426,-0.10852 -0.33073,-0.062 -0.60462,-0.13436 -0.75964,-0.20154 -1.08003,-0.58911 -0.31523,-0.39275 -0.31523,-0.96119 0,-0.35656 0.1447,-0.67179 0.14986,-0.31523 0.44958,-0.56327 0.28939,-0.24288 0.73381,-0.38241 0.44958,-0.14469 1.00252,-0.14469 0.51676,0 1.04386,0.12919 0.53227,0.12402 0.88367,0.30489 v 1.0387 h -0.0517 q -0.37207,-0.27389 -0.90434,-0.45992 -0.53226,-0.19121 -1.04386,-0.19121 -0.53227,0 -0.89917,0.20671 -0.3669,0.20154 -0.3669,0.60461 0,0.35657 0.22221,0.53744 0.21704,0.18087 0.7028,0.29455 0.26871,0.062 0.59944,0.12403 0.3359,0.062 0.55811,0.11369 0.67696,0.15502 1.04386,0.53226 0.36691,0.38241 0.36691,1.01286 z"
             style="fill:#e39d17;fill-opacity:1;stroke-width:0.04804921"
             id="path4577" />
          <path
             d="m 264.23066,353.00698 q 0,0.83716 -0.18603,1.46244 -0.18087,0.62012 -0.59945,1.03353 -0.39791,0.39274 -0.93018,0.57361 -0.53226,0.18086 -1.24023,0.18086 -0.72347,0 -1.2609,-0.1912 -0.53744,-0.1912 -0.90434,-0.56327 -0.41858,-0.42375 -0.60462,-1.02319 -0.18086,-0.59945 -0.18086,-1.47278 v -4.60437 h 1.02319 v 4.65604 q 0,0.62529 0.0827,0.98702 0.0879,0.36174 0.28939,0.65629 0.22738,0.3359 0.61495,0.50643 0.39274,0.17054 0.94051,0.17054 0.55294,0 0.94051,-0.16537 0.38757,-0.17053 0.62012,-0.5116 0.20154,-0.29455 0.28422,-0.67179 0.0879,-0.38241 0.0879,-0.94568 v -4.68188 h 1.02319 z"
             style="fill:#e39d17;fill-opacity:1;stroke-width:0.04804921"
             id="path4579" />
          <path
             d="m 270.93826,356.09723 h -0.97151 v -3.28662 q 0,-0.39791 -0.0465,-0.74414 -0.0465,-0.3514 -0.17054,-0.54777 -0.12919,-0.21704 -0.37207,-0.3204 -0.24287,-0.10852 -0.63045,-0.10852 -0.39791,0 -0.83199,0.19637 -0.43408,0.19637 -0.83199,0.50126 v 4.30982 h -0.97152 v -5.77226 h 0.97152 v 0.64079 q 0.45475,-0.37724 0.94051,-0.58911 0.48576,-0.21188 0.99736,-0.21188 0.93534,0 1.42627,0.56328 0.49092,0.56327 0.49092,1.62264 z"
             style="fill:#e39d17;fill-opacity:1;stroke-width:0.04804921"
             id="path4581" />
          <path
             d="m 273.85281,349.35862 h -1.09554 v -1.00769 h 1.09554 z m -0.062,6.73861 h -0.97151 v -5.77226 h 0.97151 z"
             style="fill:#e39d17;fill-opacity:1;stroke-width:0.04804921"
             id="path4583" />
          <path
             d="m 280.6741,350.32497 -2.33577,5.77226 h -0.97669 l -2.32027,-5.77226 h 1.0542 l 1.788,4.59404 1.77251,-4.59404 z"
             style="fill:#e39d17;fill-opacity:1;stroke-width:0.04804921"
             id="path4585" />
          <path
             d="m 286.69441,353.31187 h -4.25297 q 0,0.53227 0.16019,0.93017 0.1602,0.39274 0.43925,0.64596 0.26872,0.24805 0.63562,0.37207 0.37207,0.12402 0.81649,0.12402 0.58911,0 1.18339,-0.23254 0.59945,-0.23771 0.85266,-0.46509 h 0.0517 v 1.05937 q -0.49093,0.2067 -1.00252,0.34623 -0.5116,0.13953 -1.07487,0.13953 -1.43661,0 -2.24276,-0.77515 -0.80615,-0.78031 -0.80615,-2.21175 0,-1.41594 0.76998,-2.24793 0.77514,-0.83199 2.03605,-0.83199 1.16788,0 1.79834,0.68213 0.63562,0.68213 0.63562,1.93787 z m -0.94568,-0.74414 q -0.005,-0.76481 -0.38757,-1.18339 -0.37724,-0.41858 -1.15239,-0.41858 -0.78031,0 -1.2454,0.45992 -0.45992,0.45992 -0.52193,1.14205 z"
             style="fill:#e39d17;fill-opacity:1;stroke-width:0.04804921"
             id="path4587" />
          <path
             d="m 291.76903,351.38434 h -0.0517 q -0.21704,-0.0517 -0.42374,-0.0724 -0.20154,-0.0258 -0.48059,-0.0258 -0.44959,0 -0.86817,0.20154 -0.41858,0.19637 -0.80615,0.5116 v 4.09794 h -0.97152 v -5.77226 h 0.97152 v 0.85266 q 0.57878,-0.46509 1.01803,-0.65629 0.44441,-0.19637 0.90433,-0.19637 0.25322,0 0.36691,0.0155 0.11369,0.0103 0.34106,0.0465 z"
             style="fill:#e39d17;fill-opacity:1;stroke-width:0.04804921"
             id="path4589" />
          <path
             d="m 296.81782,354.43325 q 0,0.79065 -0.65629,1.29708 -0.65112,0.50642 -1.78284,0.50642 -0.64079,0 -1.17822,-0.14986 -0.53227,-0.15503 -0.894,-0.33589 v -1.09038 h 0.0517 q 0.45992,0.34624 1.0232,0.55294 0.56327,0.20154 1.08003,0.20154 0.64079,0 1.00253,-0.20671 0.36173,-0.2067 0.36173,-0.65112 0,-0.34106 -0.19637,-0.51676 -0.19637,-0.1757 -0.75447,-0.29973 -0.20671,-0.0465 -0.54261,-0.10852 -0.33073,-0.062 -0.60461,-0.13436 -0.75965,-0.20153 -1.08004,-0.58911 -0.31523,-0.39274 -0.31523,-0.96118 0,-0.35657 0.1447,-0.67179 0.14986,-0.31523 0.44958,-0.56328 0.28939,-0.24288 0.73381,-0.3824 0.44958,-0.1447 1.00252,-0.1447 0.51677,0 1.04387,0.1292 0.53226,0.12402 0.88366,0.30489 v 1.03869 h -0.0517 q -0.37207,-0.27388 -0.90434,-0.45992 -0.53227,-0.1912 -1.04387,-0.1912 -0.53226,0 -0.89917,0.20671 -0.3669,0.20153 -0.3669,0.60461 0,0.35657 0.22221,0.53743 0.21704,0.18087 0.7028,0.29456 0.26872,0.062 0.59945,0.12402 0.33589,0.062 0.5581,0.11369 0.67696,0.15503 1.04387,0.53227 0.3669,0.3824 0.3669,1.01286 z"
             style="fill:#e39d17;fill-opacity:1;stroke-width:0.04804921"
             id="path4591" />
          <path
             d="m 299.25695,349.35862 h -1.09554 v -1.00769 h 1.09554 z m -0.062,6.73861 h -0.97151 v -5.77226 h 0.97151 z"
             style="fill:#e39d17;fill-opacity:1;stroke-width:0.04804921"
             id="path4593" />
          <path
             d="m 304.08353,356.04555 q -0.27389,0.0724 -0.59945,0.11886 -0.32039,0.0465 -0.57361,0.0465 -0.88367,0 -1.34359,-0.47543 -0.45992,-0.47542 -0.45992,-1.52445 v -3.06958 h -0.65629 v -0.81649 h 0.65629 v -1.65881 h 0.97152 v 1.65881 h 2.00505 v 0.81649 h -2.00505 v 2.63033 q 0,0.45475 0.0207,0.71313 0.0207,0.25322 0.1447,0.47543 0.11368,0.2067 0.31005,0.30489 0.20154,0.093 0.60979,0.093 0.23771,0 0.49609,-0.0672 0.25838,-0.0724 0.37207,-0.11886 h 0.0517 z"
             style="fill:#e39d17;fill-opacity:1;stroke-width:0.04804921"
             id="path4595" />
          <path
             d="m 309.74726,356.09723 h -0.96635 v -0.61495 q -0.12919,0.0879 -0.3514,0.24805 -0.21704,0.15502 -0.42374,0.24804 -0.24288,0.11886 -0.55811,0.19637 -0.31523,0.0827 -0.73897,0.0827 -0.78032,0 -1.32292,-0.51676 -0.5426,-0.51676 -0.5426,-1.31775 0,-0.65629 0.27905,-1.05937 0.28422,-0.40824 0.80615,-0.64078 0.5271,-0.23255 1.26608,-0.31523 0.73897,-0.0827 1.58646,-0.12402 v -0.14986 q 0,-0.33073 -0.11885,-0.54777 -0.11369,-0.21705 -0.33073,-0.34107 -0.20671,-0.11885 -0.4961,-0.1602 -0.28939,-0.0413 -0.60461,-0.0413 -0.38241,0 -0.85266,0.10336 -0.47026,0.0982 -0.97152,0.28938 h -0.0517 v -0.98702 q 0.28422,-0.0775 0.82166,-0.17053 0.53743,-0.093 1.05937,-0.093 0.60978,0 1.05936,0.10336 0.45476,0.0982 0.78548,0.34106 0.32557,0.23771 0.4961,0.61495 0.17053,0.37724 0.17053,0.93534 z m -0.96635,-1.4211 v -1.60714 q -0.44442,0.0258 -1.04903,0.0775 -0.59945,0.0517 -0.95085,0.14987 -0.41858,0.11885 -0.67696,0.37207 -0.25838,0.24804 -0.25838,0.68729 0,0.4961 0.29972,0.74931 0.29973,0.24805 0.91468,0.24805 0.51159,0 0.93534,-0.19637 0.42375,-0.20154 0.78548,-0.48059 z"
             style="fill:#e39d17;fill-opacity:1;stroke-width:0.04804921"
             id="path4597" />
          <path
             d="m 315.23013,351.38434 h -0.0517 q -0.21704,-0.0517 -0.42375,-0.0724 -0.20154,-0.0258 -0.48059,-0.0258 -0.44959,0 -0.86817,0.20154 -0.41857,0.19637 -0.80615,0.5116 v 4.09794 h -0.97151 v -5.77226 h 0.97151 v 0.85266 q 0.57878,-0.46509 1.01803,-0.65629 0.44442,-0.19637 0.90434,-0.19637 0.25321,0 0.3669,0.0155 0.11369,0.0103 0.34106,0.0465 z"
             style="fill:#e39d17;fill-opacity:1;stroke-width:0.04804921"
             id="path4599" />
          <path
             d="m 317.19901,349.35862 h -1.09555 v -1.00769 h 1.09555 z m -0.062,6.73861 h -0.97151 v -5.77226 h 0.97151 z"
             style="fill:#e39d17;fill-opacity:1;stroke-width:0.04804921"
             id="path4601" />
          <path
             d="m 323.94794,353.21368 q 0,1.41077 -0.72347,2.22726 -0.72347,0.81648 -1.93786,0.81648 -1.22473,0 -1.9482,-0.81648 -0.71831,-0.81649 -0.71831,-2.22726 0,-1.41076 0.71831,-2.22725 0.72347,-0.82166 1.9482,-0.82166 1.21439,0 1.93786,0.82166 0.72347,0.81649 0.72347,2.22725 z m -1.00252,0 q 0,-1.12138 -0.43925,-1.66398 -0.43925,-0.54777 -1.21956,-0.54777 -0.79065,0 -1.2299,0.54777 -0.43408,0.5426 -0.43408,1.66398 0,1.08521 0.43925,1.64848 0.43925,0.55811 1.22473,0.55811 0.77514,0 1.21439,-0.55294 0.44442,-0.55811 0.44442,-1.65365 z"
             style="fill:#e39d17;fill-opacity:1;stroke-width:0.04804921"
             id="path4603" />
          <path
             d="m 329.58068,354.43325 q 0,0.79065 -0.65629,1.29708 -0.65113,0.50642 -1.78284,0.50642 -0.64079,0 -1.17822,-0.14986 -0.53227,-0.15503 -0.894,-0.33589 v -1.09038 h 0.0517 q 0.45992,0.34624 1.0232,0.55294 0.56327,0.20154 1.08003,0.20154 0.64079,0 1.00253,-0.20671 0.36173,-0.2067 0.36173,-0.65112 0,-0.34106 -0.19637,-0.51676 -0.19637,-0.1757 -0.75448,-0.29973 -0.2067,-0.0465 -0.5426,-0.10852 -0.33073,-0.062 -0.60461,-0.13436 -0.75965,-0.20153 -1.08004,-0.58911 -0.31523,-0.39274 -0.31523,-0.96118 0,-0.35657 0.1447,-0.67179 0.14986,-0.31523 0.44958,-0.56328 0.28939,-0.24288 0.73381,-0.3824 0.44958,-0.1447 1.00252,-0.1447 0.51677,0 1.04386,0.1292 0.53227,0.12402 0.88367,0.30489 v 1.03869 h -0.0517 q -0.37207,-0.27388 -0.90434,-0.45992 -0.53227,-0.1912 -1.04387,-0.1912 -0.53226,0 -0.89917,0.20671 -0.3669,0.20153 -0.3669,0.60461 0,0.35657 0.22221,0.53743 0.21704,0.18087 0.7028,0.29456 0.26872,0.062 0.59945,0.12402 0.33589,0.062 0.5581,0.11369 0.67696,0.15503 1.04387,0.53227 0.3669,0.3824 0.3669,1.01286 z"
             style="fill:#e39d17;fill-opacity:1;stroke-width:0.04804921"
             id="path4605" />
        </g>
      </g>
    </g>
  </g>
</svg>
