<?xml version="1.0" encoding="UTF-8" standalone="no"?>
<!-- Created with Inkscape (http://www.inkscape.org/) -->

<svg
   xmlns:dc="http://purl.org/dc/elements/1.1/"
   xmlns:cc="http://creativecommons.org/ns#"
   xmlns:rdf="http://www.w3.org/1999/02/22-rdf-syntax-ns#"
   xmlns:svg="http://www.w3.org/2000/svg"
   xmlns="http://www.w3.org/2000/svg"
   xmlns:sodipodi="http://sodipodi.sourceforge.net/DTD/sodipodi-0.dtd"
   xmlns:inkscape="http://www.inkscape.org/namespaces/inkscape"
   width="201.41183mm"
   height="30.508066mm"
   viewBox="0 0 201.41184 30.508066"
   version="1.1"
   id="svg5156"
   inkscape:version="0.92.1 r15371"
   sodipodi:docname="revlat.svg">
  <defs
     id="defs5150">
    <filter
       inkscape:collect="always"
       style="color-interpolation-filters:sRGB"
       id="filter4648"
       x="-0.013541877"
       width="1.0270838"
       y="-0.10539269"
       height="1.2107854">
      <feGaussianBlur
         inkscape:collect="always"
         stdDeviation="3.1365018"
         id="feGaussianBlur4650" />
    </filter>
  </defs>
  <sodipodi:namedview
     id="base"
     pagecolor="#ffffff"
     bordercolor="#666666"
     borderopacity="1.0"
     inkscape:pageopacity="0.0"
     inkscape:pageshadow="2"
     inkscape:zoom="0.7"
     inkscape:cx="357.27053"
     inkscape:cy="96.077893"
     inkscape:document-units="mm"
     inkscape:current-layer="layer1"
     showgrid="false"
     fit-margin-top="0"
     fit-margin-left="0"
     fit-margin-right="0"
     fit-margin-bottom="0"
     inkscape:window-width="1212"
     inkscape:window-height="1090"
     inkscape:window-x="923"
     inkscape:window-y="141"
     inkscape:window-maximized="0" />
  <metadata
     id="metadata5153">
    <rdf:RDF>
      <cc:Work
         rdf:about="">
        <dc:format>image/svg+xml</dc:format>
        <dc:type
           rdf:resource="http://purl.org/dc/dcmitype/StillImage" />
        <dc:title></dc:title>
      </cc:Work>
    </rdf:RDF>
  </metadata>
  <g
     inkscape:label="Capa 1"
     inkscape:groupmode="layer"
     id="layer1"
     transform="translate(53.801104,-181.06067)">
    <g
       id="g4692">
      <g
         transform="matrix(0.35277777,0,0,-0.35277777,-51.145532,209.71632)"
         id="Group_11-4"
         style="font-size:medium;font-family:'Times New Roman';fill:#000000;fill-rule:nonzero;stroke:none;stroke-linecap:round;stroke-linejoin:round;filter:url(#filter4648)">
        <g
           id="Group_12-7"
           stroke-miterlimit="79.8403193612775"
           style="fill:#000000;stroke-width:1.63300002;stroke-miterlimit:79.84031677">
          <g
             style="fill:#000000"
             id="Group_13-0">
            <path
               d="M 15.402,71.042 V 32.407 c 0,-1.599 0.08,-2.805 0.238,-3.615 0.159,-0.813 0.459,-1.504 0.903,-2.08 0.781,-1.049 2.123,-1.574 4.025,-1.574 h 0.76 V 19.893 H 0 v 5.245 h 1.015 c 1.88,0 3.221,0.525 4.026,1.574 0.548,0.725 0.875,1.686 0.98,2.884 0.086,0.75 0.127,1.687 0.127,2.811 v 26.118 c 0,2 -0.116,3.348 -0.349,4.048 -0.549,2.124 -2.144,3.211 -4.784,3.26 H 0 v 5.209 z"
               id="path198-3"
               inkscape:connector-curvature="0"
               style="fill:#000000;marker-start:none;marker-end:none" />
            <path
               d="m 64.715,34.732 h 3.993 v -6.746 c 0,-1.598 -0.133,-2.885 -0.397,-3.859 -0.265,-0.976 -0.723,-1.85 -1.378,-2.624 -1.606,-1.923 -3.91,-2.884 -6.908,-2.884 -4.459,0 -7.47,2.384 -9.033,7.157 -1.732,-1.9 -3.252,-3.299 -4.563,-4.199 -2.979,-1.973 -6.19,-2.958 -9.633,-2.958 -3.17,0 -5.853,1.235 -8.051,3.709 -1.922,2.174 -2.884,4.696 -2.884,7.569 0,3.897 1.51,6.845 4.533,8.844 1.71,1.125 4.404,2.099 8.08,2.922 0.844,0.2 3.053,0.626 6.624,1.274 3.719,0.649 5.577,2.185 5.577,4.609 0,1.749 -0.771,3.135 -2.313,4.16 -1.289,0.849 -2.873,1.274 -4.754,1.274 -2.492,0 -5.018,-0.701 -7.574,-2.099 0.866,-1.174 1.3,-2.373 1.3,-3.596 0,-1.401 -0.486,-2.537 -1.459,-3.411 -0.782,-0.699 -1.762,-1.049 -2.946,-1.049 -1.437,0 -2.546,0.5 -3.328,1.499 -0.844,1.05 -1.268,2.248 -1.268,3.597 0,2.05 0.782,3.884 2.345,5.508 2.515,2.625 6.941,3.937 13.279,3.935 5.768,0.002 9.961,-1.11 12.58,-3.335 1.544,-1.325 2.558,-3.048 3.043,-5.17 0.338,-1.449 0.507,-3.548 0.507,-6.296 v -10.23 c 0.02,-2.648 0.053,-4.235 0.096,-4.76 0.105,-1.948 0.79,-2.922 2.06,-2.922 1.647,0 2.472,1.686 2.472,5.059 z m -14.167,5.545 c -2.028,-1.2 -4.15,-2.148 -6.37,-2.848 -2.746,-0.849 -4.542,-1.623 -5.386,-2.324 -1.354,-1.098 -2.03,-2.548 -2.03,-4.346 0,-1.576 0.54,-2.835 1.617,-3.784 0.887,-0.749 1.934,-1.125 3.138,-1.125 1.309,0 2.631,0.338 3.96,1.012 1.332,0.675 2.399,1.549 3.202,2.623 1.352,1.823 2.028,4.234 2.028,7.232 z"
               id="path200-9"
               inkscape:connector-curvature="0"
               style="fill:#000000;marker-start:none;marker-end:none" />
            <path
               d="m 89.687,34.319 h 4.152 v -5.508 c 0,-2.748 -0.528,-4.922 -1.585,-6.521 -1.669,-2.448 -4.182,-3.671 -7.542,-3.671 -3.38,0 -5.842,1.223 -7.384,3.671 -1.12,1.774 -1.68,4.509 -1.68,8.206 v 20.385 h -5.355 v 5.209 c 3.232,0.225 5.957,1.661 8.176,4.309 1.077,1.35 1.773,2.899 2.091,4.647 0.127,0.549 0.211,1.449 0.253,2.699 h 4.184 V 56.09 H 93.49 V 50.881 H 84.997 V 29.897 c 0,-1.573 0.084,-2.686 0.252,-3.335 0.361,-1.35 1.111,-2.024 2.252,-2.024 1.056,0 1.71,0.6 1.964,1.799 0.148,0.749 0.222,1.698 0.222,2.848 z"
               id="path202-4"
               inkscape:connector-curvature="0"
               style="fill:#000000;marker-start:none;marker-end:none" />
            <path
               d="M 115.166,56.09 V 32.407 c 0,-1.599 0.079,-2.805 0.238,-3.615 0.158,-0.813 0.449,-1.504 0.872,-2.08 0.802,-1.049 2.144,-1.574 4.024,-1.574 h 1.237 V 19.893 H 99.702 v 5.245 h 1.045 c 1.88,0 3.222,0.525 4.025,1.574 0.549,0.725 0.887,1.686 1.014,2.884 0.064,0.725 0.095,1.663 0.095,2.811 v 11.168 c 0,1.998 -0.117,3.348 -0.349,4.048 -0.549,2.122 -2.143,3.208 -4.785,3.258 h -1.045 v 5.209 z m -5.133,17.425 c 1.627,0 3.01,-0.75 4.151,-2.249 0.993,-1.273 1.49,-2.785 1.49,-4.535 0,-2.023 -0.635,-3.709 -1.903,-5.058 -1.077,-1.148 -2.354,-1.723 -3.834,-1.723 -1.711,0 -3.137,0.749 -4.278,2.248 -0.971,1.273 -1.458,2.797 -1.458,4.571 0,1.974 0.635,3.637 1.902,4.984 1.078,1.175 2.388,1.762 3.93,1.762 z"
               id="path204-0"
               inkscape:connector-curvature="0"
               style="fill:#000000;marker-start:none;marker-end:none" />
            <path
               d="m 141.471,56.09 v -6.032 c 1.436,1.874 2.778,3.284 4.025,4.233 2.704,2.05 5.65,3.075 8.841,3.073 4.141,0.002 7.385,-1.498 9.728,-4.496 1.143,-1.474 1.903,-3.161 2.282,-5.06 0.36,-1.874 0.539,-3.971 0.539,-6.295 v -9.106 c 0,-1.999 0.116,-3.347 0.349,-4.047 0.551,-2.123 2.145,-3.197 4.786,-3.222 h 0.728 v -5.245 h -21.295 v 5.245 h 0.95 c 1.88,0 3.223,0.525 4.025,1.574 0.549,0.725 0.876,1.686 0.982,2.884 0.084,0.75 0.127,1.687 0.127,2.811 v 6.858 c 0,3.722 -0.455,6.495 -1.363,8.318 -0.507,0.974 -1.242,1.75 -2.202,2.324 -0.963,0.576 -2.023,0.862 -3.186,0.862 -2.64,0 -4.869,-1.211 -6.685,-3.635 -0.93,-1.198 -1.522,-2.41 -1.776,-3.635 -0.254,-1.123 -0.38,-2.623 -0.38,-4.496 v -6.596 c 0,-1.999 0.117,-3.347 0.349,-4.047 0.549,-2.123 2.143,-3.197 4.785,-3.222 h 1.267 v -5.245 h -21.74 v 5.245 h 0.856 c 1.88,0 3.223,0.525 4.025,1.574 0.549,0.725 0.887,1.686 1.014,2.884 0.064,0.725 0.095,1.663 0.095,2.811 v 11.168 c 0,1.998 -0.106,3.348 -0.317,4.048 -0.569,2.122 -2.175,3.208 -4.817,3.258 h -1.172 v 5.209 z"
               id="path206-7"
               inkscape:connector-curvature="0"
               style="fill:#000000;marker-start:none;marker-end:none" />
            <path
               d="m 196.741,57.364 c 5.534,0.002 10.182,-1.859 13.943,-5.583 3.845,-3.797 5.768,-8.407 5.768,-13.829 0,-2.847 -0.607,-5.595 -1.823,-8.242 -1.215,-2.649 -2.9,-4.898 -5.054,-6.746 -3.402,-2.897 -7.67,-4.345 -12.804,-4.345 -3.021,0 -5.82,0.542 -8.398,1.629 -2.576,1.087 -4.753,2.642 -6.528,4.666 -3.339,3.771 -5.006,8.206 -5.006,13.302 0,2.773 0.576,5.44 1.726,7.999 1.152,2.561 2.762,4.766 4.833,6.615 3.381,3.024 7.828,4.536 13.343,4.534 z m -0.129,-4.76 c -2.556,0 -4.647,-1.297 -6.273,-3.896 -1.775,-2.847 -2.662,-6.432 -2.662,-10.756 0,-3.822 0.76,-7.106 2.281,-9.854 1.626,-2.948 3.856,-4.422 6.686,-4.422 2.916,0 5.125,1.298 6.624,3.897 1.626,2.823 2.44,6.346 2.44,10.568 0,4.171 -0.857,7.657 -2.567,10.456 -1.626,2.672 -3.803,4.007 -6.529,4.007 z"
               id="path208-6"
               inkscape:connector-curvature="0"
               style="fill:#000000;marker-start:none;marker-end:none" />
          </g>
        </g>
        <g
           id="Group_14-9"
           stroke-miterlimit="79.8403193612775"
           style="fill:#000000;stroke-width:1.63300002;stroke-miterlimit:79.84031677">
          <g
             style="fill:#000000"
             id="Group_15-8">
            <path
               d="m 316.636,56.09 v -6.857 c 1.585,2.523 3.107,4.358 4.565,5.509 2.175,1.748 4.563,2.624 7.162,2.622 3.041,0.002 5.556,-1.011 7.541,-3.035 1.056,-1.074 2.07,-2.773 3.043,-5.096 2.957,5.421 6.907,8.133 11.851,8.131 1.86,0.002 3.572,-0.436 5.134,-1.31 1.565,-0.875 2.801,-2.087 3.708,-3.635 1.48,-2.499 2.218,-6.109 2.218,-10.832 v -9.18 c 0,-1.999 0.118,-3.347 0.349,-4.047 0.549,-2.123 2.144,-3.197 4.785,-3.222 h 0.667 v -5.245 h -19.934 v 5.208 c 0,0.149 0.116,0.224 0.349,0.226 l 1.425,-0.077 c 0.36,-0.025 0.809,0.181 1.347,0.618 0.539,0.437 0.904,0.893 1.093,1.369 0.381,0.874 0.571,2.935 0.571,6.183 v 5.245 c 0,3.673 -0.232,6.333 -0.698,7.982 -0.316,1.099 -0.95,1.975 -1.901,2.624 -0.866,0.574 -1.848,0.862 -2.946,0.862 -2.451,0 -4.352,-1.125 -5.705,-3.374 -1.055,-1.773 -1.584,-4.558 -1.584,-8.356 v -7.082 c 0,-1.6 0.073,-2.686 0.221,-3.261 0.338,-1.347 1.077,-2.197 2.22,-2.548 0.526,-0.173 1.318,-0.298 2.375,-0.374 v -5.245 h -19.046 v 5.245 c 1.754,0.15 2.948,0.561 3.581,1.237 0.506,0.524 0.855,1.155 1.046,1.891 0.19,0.738 0.285,1.793 0.285,3.167 v 7.757 c 0,3.422 -0.369,6.008 -1.109,7.757 -0.423,0.95 -1.045,1.718 -1.87,2.305 -0.824,0.587 -1.71,0.881 -2.661,0.881 -1.163,0 -2.288,-0.364 -3.376,-1.087 -1.087,-0.725 -1.939,-1.674 -2.551,-2.848 -0.93,-1.774 -1.393,-4.409 -1.393,-7.908 v -5.47 c 0,-1.874 0.082,-3.273 0.252,-4.198 0.168,-0.924 0.465,-1.634 0.887,-2.134 0.887,-0.9 2.188,-1.35 3.9,-1.35 v -5.245 h -20.632 v 5.245 h 1.109 c 1.88,0 3.221,0.525 4.025,1.574 0.549,0.725 0.878,1.686 0.982,2.884 0.084,0.75 0.127,1.687 0.127,2.811 v 11.168 c 0,1.998 -0.116,3.348 -0.349,4.048 -0.549,2.122 -2.143,3.208 -4.785,3.258 h -1.109 v 5.209 z"
               id="path212-8"
               inkscape:connector-curvature="0"
               style="fill:#000000;marker-start:none;marker-end:none" />
            <path
               d="m 402.013,31.471 h 4.912 c -1.184,-3.173 -2.536,-5.621 -4.057,-7.344 -3.295,-3.673 -7.584,-5.508 -12.866,-5.508 -5.029,0 -9.17,1.623 -12.422,4.87 -1.819,1.823 -3.255,4.122 -4.311,6.896 -0.992,2.573 -1.488,5.183 -1.488,7.831 0,3.522 0.834,6.908 2.503,10.155 1.626,3.172 3.94,5.533 6.94,7.081 2.513,1.276 5.261,1.914 8.239,1.912 3.993,0.002 7.511,-1.087 10.554,-3.26 3.4,-2.423 5.651,-5.896 6.749,-10.418 0.486,-1.923 0.741,-4.683 0.762,-8.28 h -24.783 c 0.232,-2.423 0.771,-4.396 1.617,-5.921 0.865,-1.574 2.048,-2.824 3.548,-3.748 1.564,-0.948 3.276,-1.423 5.134,-1.424 2.726,0.001 5.007,1.026 6.846,3.073 0.928,1.025 1.637,2.386 2.123,4.085 z m -5.071,9.367 c -0.062,3.174 -0.538,5.634 -1.425,7.383 -1.312,2.622 -3.224,3.934 -5.737,3.934 -2.64,0 -4.647,-1.435 -6.021,-4.309 -0.844,-1.748 -1.331,-4.084 -1.458,-7.008 z m -5.007,21.51 h -6.465 l 5.356,11.353 h 10.807 z"
               id="path214-1"
               inkscape:connector-curvature="0"
               style="fill:#000000;marker-start:none;marker-end:none" />
            <path
               d="m 427.62,56.09 v -7.869 c 1.331,2.399 2.576,4.198 3.739,5.396 2.431,2.498 5.112,3.749 8.051,3.747 2.343,0.002 4.182,-0.811 5.513,-2.435 1.372,-1.699 2.059,-3.66 2.059,-5.883 0,-1.874 -0.528,-3.41 -1.585,-4.611 -0.928,-1.049 -2.122,-1.572 -3.581,-1.572 -1.372,0 -2.44,0.487 -3.2,1.461 -0.677,0.849 -1.015,1.898 -1.013,3.148 -0.002,0.523 0.084,1.187 0.253,1.985 -1.711,0.025 -3.296,-0.448 -4.755,-1.424 -1.943,-1.399 -3.295,-3.309 -4.056,-5.733 -0.591,-1.773 -0.887,-4.121 -0.887,-7.045 v -2.848 c 0,-1.999 0.117,-3.347 0.349,-4.047 0.549,-2.123 2.143,-3.197 4.785,-3.222 h 1.236 v -5.245 h -21.739 v 5.245 h 0.95 c 1.88,0 3.222,0.525 4.025,1.574 0.549,0.725 0.887,1.686 1.014,2.884 0.063,0.725 0.095,1.663 0.095,2.811 v 11.168 c 0,1.998 -0.116,3.348 -0.349,4.048 -0.549,2.122 -2.143,3.208 -4.785,3.258 h -1.236 v 5.209 z"
               id="path216-5"
               inkscape:connector-curvature="0"
               style="fill:#000000;marker-start:none;marker-end:none" />
            <path
               d="M 466.315,56.09 V 32.407 c 0,-1.599 0.079,-2.805 0.238,-3.615 0.158,-0.813 0.449,-1.504 0.872,-2.08 0.802,-1.049 2.144,-1.574 4.024,-1.574 h 1.237 V 19.893 H 450.85 v 5.245 h 1.046 c 1.88,0 3.222,0.525 4.025,1.574 0.549,0.725 0.887,1.686 1.014,2.884 0.063,0.725 0.095,1.663 0.095,2.811 v 11.168 c 0,1.998 -0.117,3.348 -0.349,4.048 -0.549,2.122 -2.143,3.208 -4.785,3.258 h -1.046 v 5.209 z m -5.133,17.425 c 1.626,0 3.01,-0.75 4.151,-2.249 0.993,-1.273 1.489,-2.785 1.489,-4.535 0,-2.023 -0.634,-3.709 -1.902,-5.058 -1.076,-1.148 -2.354,-1.723 -3.833,-1.723 -1.712,0 -3.138,0.749 -4.279,2.248 -0.971,1.273 -1.458,2.797 -1.458,4.571 0,1.974 0.635,3.637 1.902,4.984 1.077,1.175 2.388,1.762 3.93,1.762 z"
               id="path218-6"
               inkscape:connector-curvature="0"
               style="fill:#000000;marker-start:none;marker-end:none" />
            <path
               d="m 505.201,31.92 h 3.961 c -0.549,-2.322 -1.098,-4.071 -1.647,-5.246 -1.311,-2.798 -3.265,-4.884 -5.864,-6.258 -2.239,-1.199 -4.69,-1.797 -7.352,-1.797 -5.071,0 -9.306,1.922 -12.709,5.77 -3.209,3.622 -4.815,8.131 -4.815,13.527 0,5.772 1.701,10.517 5.102,14.239 3.212,3.473 7.384,5.211 12.518,5.209 4.647,0.002 8.301,-1.348 10.965,-4.047 1.71,-1.723 2.566,-3.797 2.566,-6.221 0,-1.698 -0.443,-3.097 -1.33,-4.197 -0.993,-1.248 -2.24,-1.873 -3.741,-1.873 -1.479,0 -2.651,0.637 -3.517,1.911 -0.718,1.024 -1.078,2.187 -1.078,3.486 0,1.523 0.54,2.859 1.617,4.008 -1.184,1.325 -2.651,1.988 -4.404,1.988 -2.558,0 -4.606,-1.338 -6.148,-4.011 -1.354,-2.348 -2.03,-5.358 -2.03,-9.031 0,-4.62 0.962,-8.355 2.885,-11.203 1.753,-2.573 3.96,-3.86 6.622,-3.861 2.536,0.001 4.66,1.126 6.37,3.374 0.846,1.124 1.522,2.536 2.029,4.233 z"
               id="path220-5"
               inkscape:connector-curvature="0"
               style="fill:#000000;marker-start:none;marker-end:none" />
            <path
               d="m 551.883,34.732 h 3.993 v -6.746 c 0,-1.598 -0.133,-2.885 -0.396,-3.859 -0.265,-0.976 -0.724,-1.85 -1.379,-2.624 -1.605,-1.923 -3.909,-2.884 -6.908,-2.884 -4.458,0 -7.469,2.384 -9.032,7.157 -1.733,-1.9 -3.253,-3.299 -4.563,-4.199 -2.98,-1.973 -6.191,-2.958 -9.634,-2.958 -3.17,0 -5.853,1.235 -8.05,3.709 -1.923,2.174 -2.884,4.696 -2.884,7.569 0,3.897 1.51,6.845 4.532,8.844 1.711,1.125 4.405,2.099 8.081,2.922 0.844,0.2 3.052,0.626 6.624,1.274 3.719,0.649 5.577,2.185 5.577,4.609 0,1.749 -0.772,3.135 -2.314,4.16 -1.288,0.849 -2.873,1.274 -4.753,1.274 -2.493,0 -5.018,-0.701 -7.574,-2.099 0.866,-1.174 1.299,-2.373 1.299,-3.596 0,-1.401 -0.485,-2.537 -1.458,-3.411 -0.782,-0.699 -1.763,-1.049 -2.946,-1.049 -1.438,0 -2.547,0.5 -3.329,1.499 -0.844,1.05 -1.268,2.248 -1.268,3.597 0,2.05 0.783,3.884 2.345,5.508 2.515,2.625 6.942,3.937 13.28,3.935 5.767,0.002 9.96,-1.11 12.58,-3.335 1.544,-1.325 2.557,-3.048 3.043,-5.17 0.338,-1.449 0.506,-3.548 0.506,-6.296 v -10.23 c 0.021,-2.648 0.054,-4.235 0.097,-4.76 0.105,-1.948 0.79,-2.922 2.059,-2.922 1.647,0 2.472,1.686 2.472,5.059 z m -14.166,5.545 c -2.028,-1.2 -4.151,-2.148 -6.37,-2.848 -2.747,-0.849 -4.543,-1.623 -5.387,-2.324 -1.353,-1.098 -2.029,-2.548 -2.029,-4.346 0,-1.576 0.539,-2.835 1.617,-3.784 0.888,-0.749 1.934,-1.125 3.138,-1.125 1.309,0 2.63,0.338 3.96,1.012 1.331,0.675 2.399,1.549 3.202,2.623 1.351,1.823 2.027,4.234 2.027,7.232 z"
               id="path222-5"
               inkscape:connector-curvature="0"
               style="fill:#000000;marker-start:none;marker-end:none" />
          </g>
        </g>
        <g
           id="Group_16-5"
           stroke-miterlimit="79.8403193612775"
           style="fill:#000000;stroke-width:2.5079999;stroke-miterlimit:79.84031677">
          <g
             style="fill:#000000"
             id="Group_17-0">
            <path
               d="m 284.105,22.694 5.38,-2.765 -4.842,-9.148 c -1.147,-2.169 -2.25,-3.822 -3.305,-4.961 -1.055,-1.139 -2.302,-2.007 -3.739,-2.602 -3.545,-1.498 -7.338,-1.208 -11.381,0.869 -6.005,3.086 -8.35,8.407 -7.03,15.961 -3.698,-1.376 -6.752,-2.221 -9.162,-2.532 -5.431,-0.616 -10.465,0.271 -15.106,2.656 -4.269,2.194 -6.997,5.729 -8.183,10.604 -1.03,4.281 -0.515,8.37 1.55,12.265 2.795,5.286 6.947,8.239 12.454,8.856 3.111,0.341 7.441,-0.203 12.986,-1.631 1.282,-0.313 4.562,-1.268 9.839,-2.859 5.476,-1.695 9.083,-0.898 10.823,2.389 1.257,2.372 1.214,4.787 -0.13,7.244 -1.128,2.044 -2.957,3.718 -5.491,5.02 -3.359,1.725 -7.263,2.525 -11.711,2.398 0.324,-2.193 0.046,-4.119 -0.833,-5.779 -1.004,-1.899 -2.475,-3.103 -4.412,-3.615 -1.555,-0.408 -3.128,-0.202 -4.723,0.617 -1.936,0.995 -3.072,2.441 -3.408,4.337 -0.384,2.009 -0.094,3.929 0.874,5.757 1.471,2.779 3.841,4.727 7.114,5.848 5.271,1.816 12.177,0.531 20.716,-3.859 7.773,-3.993 12.625,-8.404 14.559,-13.235 1.126,-2.864 1.256,-5.904 0.387,-9.12 -0.586,-2.199 -1.864,-5.161 -3.838,-8.889 l -7.344,-13.875 c -1.873,-3.606 -2.969,-5.781 -3.288,-6.521 -1.256,-2.716 -1.031,-4.512 0.678,-5.391 2.219,-1.14 4.54,0.576 6.962,5.15 z M 269,40.024 c -3.594,-0.222 -7.137,-0.039 -10.627,0.548 -4.311,0.75 -7.287,0.944 -8.928,0.579 -2.61,-0.554 -4.561,-2.051 -5.853,-4.49 -1.129,-2.136 -1.309,-4.219 -0.539,-6.253 0.658,-1.631 1.799,-2.863 3.42,-3.696 1.766,-0.908 3.788,-1.363 6.064,-1.371 2.279,-0.008 4.344,0.439 6.196,1.34 3.132,1.538 5.773,4.34 7.925,8.405 z"
               id="path226-8"
               inkscape:connector-curvature="0"
               style="fill:#000000;marker-start:none;marker-end:none" />
          </g>
        </g>
      </g>
      <g
         transform="matrix(0.35277777,0,0,-0.35277777,-52.733033,208.12881)"
         id="Group_11"
         style="font-size:medium;font-family:'Times New Roman';fill:none;fill-rule:nonzero;stroke:none;stroke-linecap:round;stroke-linejoin:round">
        <g
           id="Group_12"
           stroke-miterlimit="79.8403193612775"
           style="fill:#9b223e;stroke-width:1.63300002;stroke-miterlimit:79.84031677">
          <g
             id="Group_13">
            <path
               d="M 15.402,71.042 V 32.407 c 0,-1.599 0.08,-2.805 0.238,-3.615 0.159,-0.813 0.459,-1.504 0.903,-2.08 0.781,-1.049 2.123,-1.574 4.025,-1.574 h 0.76 V 19.893 H 0 v 5.245 h 1.015 c 1.88,0 3.221,0.525 4.026,1.574 0.548,0.725 0.875,1.686 0.98,2.884 0.086,0.75 0.127,1.687 0.127,2.811 v 26.118 c 0,2 -0.116,3.348 -0.349,4.048 -0.549,2.124 -2.144,3.211 -4.784,3.26 H 0 v 5.209 z"
               id="path198"
               inkscape:connector-curvature="0"
               style="marker-start:none;marker-end:none" />
            <path
               d="m 64.715,34.732 h 3.993 v -6.746 c 0,-1.598 -0.133,-2.885 -0.397,-3.859 -0.265,-0.976 -0.723,-1.85 -1.378,-2.624 -1.606,-1.923 -3.91,-2.884 -6.908,-2.884 -4.459,0 -7.47,2.384 -9.033,7.157 -1.732,-1.9 -3.252,-3.299 -4.563,-4.199 -2.979,-1.973 -6.19,-2.958 -9.633,-2.958 -3.17,0 -5.853,1.235 -8.051,3.709 -1.922,2.174 -2.884,4.696 -2.884,7.569 0,3.897 1.51,6.845 4.533,8.844 1.71,1.125 4.404,2.099 8.08,2.922 0.844,0.2 3.053,0.626 6.624,1.274 3.719,0.649 5.577,2.185 5.577,4.609 0,1.749 -0.771,3.135 -2.313,4.16 -1.289,0.849 -2.873,1.274 -4.754,1.274 -2.492,0 -5.018,-0.701 -7.574,-2.099 0.866,-1.174 1.3,-2.373 1.3,-3.596 0,-1.401 -0.486,-2.537 -1.459,-3.411 -0.782,-0.699 -1.762,-1.049 -2.946,-1.049 -1.437,0 -2.546,0.5 -3.328,1.499 -0.844,1.05 -1.268,2.248 -1.268,3.597 0,2.05 0.782,3.884 2.345,5.508 2.515,2.625 6.941,3.937 13.279,3.935 5.768,0.002 9.961,-1.11 12.58,-3.335 1.544,-1.325 2.558,-3.048 3.043,-5.17 0.338,-1.449 0.507,-3.548 0.507,-6.296 v -10.23 c 0.02,-2.648 0.053,-4.235 0.096,-4.76 0.105,-1.948 0.79,-2.922 2.06,-2.922 1.647,0 2.472,1.686 2.472,5.059 z m -14.167,5.545 c -2.028,-1.2 -4.15,-2.148 -6.37,-2.848 -2.746,-0.849 -4.542,-1.623 -5.386,-2.324 -1.354,-1.098 -2.03,-2.548 -2.03,-4.346 0,-1.576 0.54,-2.835 1.617,-3.784 0.887,-0.749 1.934,-1.125 3.138,-1.125 1.309,0 2.631,0.338 3.96,1.012 1.332,0.675 2.399,1.549 3.202,2.623 1.352,1.823 2.028,4.234 2.028,7.232 z"
               id="path200"
               inkscape:connector-curvature="0"
               style="marker-start:none;marker-end:none" />
            <path
               d="m 89.687,34.319 h 4.152 v -5.508 c 0,-2.748 -0.528,-4.922 -1.585,-6.521 -1.669,-2.448 -4.182,-3.671 -7.542,-3.671 -3.38,0 -5.842,1.223 -7.384,3.671 -1.12,1.774 -1.68,4.509 -1.68,8.206 v 20.385 h -5.355 v 5.209 c 3.232,0.225 5.957,1.661 8.176,4.309 1.077,1.35 1.773,2.899 2.091,4.647 0.127,0.549 0.211,1.449 0.253,2.699 h 4.184 V 56.09 H 93.49 V 50.881 H 84.997 V 29.897 c 0,-1.573 0.084,-2.686 0.252,-3.335 0.361,-1.35 1.111,-2.024 2.252,-2.024 1.056,0 1.71,0.6 1.964,1.799 0.148,0.749 0.222,1.698 0.222,2.848 z"
               id="path202"
               inkscape:connector-curvature="0"
               style="marker-start:none;marker-end:none" />
            <path
               d="M 115.166,56.09 V 32.407 c 0,-1.599 0.079,-2.805 0.238,-3.615 0.158,-0.813 0.449,-1.504 0.872,-2.08 0.802,-1.049 2.144,-1.574 4.024,-1.574 h 1.237 V 19.893 H 99.702 v 5.245 h 1.045 c 1.88,0 3.222,0.525 4.025,1.574 0.549,0.725 0.887,1.686 1.014,2.884 0.064,0.725 0.095,1.663 0.095,2.811 v 11.168 c 0,1.998 -0.117,3.348 -0.349,4.048 -0.549,2.122 -2.143,3.208 -4.785,3.258 h -1.045 v 5.209 z m -5.133,17.425 c 1.627,0 3.01,-0.75 4.151,-2.249 0.993,-1.273 1.49,-2.785 1.49,-4.535 0,-2.023 -0.635,-3.709 -1.903,-5.058 -1.077,-1.148 -2.354,-1.723 -3.834,-1.723 -1.711,0 -3.137,0.749 -4.278,2.248 -0.971,1.273 -1.458,2.797 -1.458,4.571 0,1.974 0.635,3.637 1.902,4.984 1.078,1.175 2.388,1.762 3.93,1.762 z"
               id="path204"
               inkscape:connector-curvature="0"
               style="marker-start:none;marker-end:none" />
            <path
               d="m 141.471,56.09 v -6.032 c 1.436,1.874 2.778,3.284 4.025,4.233 2.704,2.05 5.65,3.075 8.841,3.073 4.141,0.002 7.385,-1.498 9.728,-4.496 1.143,-1.474 1.903,-3.161 2.282,-5.06 0.36,-1.874 0.539,-3.971 0.539,-6.295 v -9.106 c 0,-1.999 0.116,-3.347 0.349,-4.047 0.551,-2.123 2.145,-3.197 4.786,-3.222 h 0.728 v -5.245 h -21.295 v 5.245 h 0.95 c 1.88,0 3.223,0.525 4.025,1.574 0.549,0.725 0.876,1.686 0.982,2.884 0.084,0.75 0.127,1.687 0.127,2.811 v 6.858 c 0,3.722 -0.455,6.495 -1.363,8.318 -0.507,0.974 -1.242,1.75 -2.202,2.324 -0.963,0.576 -2.023,0.862 -3.186,0.862 -2.64,0 -4.869,-1.211 -6.685,-3.635 -0.93,-1.198 -1.522,-2.41 -1.776,-3.635 -0.254,-1.123 -0.38,-2.623 -0.38,-4.496 v -6.596 c 0,-1.999 0.117,-3.347 0.349,-4.047 0.549,-2.123 2.143,-3.197 4.785,-3.222 h 1.267 v -5.245 h -21.74 v 5.245 h 0.856 c 1.88,0 3.223,0.525 4.025,1.574 0.549,0.725 0.887,1.686 1.014,2.884 0.064,0.725 0.095,1.663 0.095,2.811 v 11.168 c 0,1.998 -0.106,3.348 -0.317,4.048 -0.569,2.122 -2.175,3.208 -4.817,3.258 h -1.172 v 5.209 z"
               id="path206"
               inkscape:connector-curvature="0"
               style="marker-start:none;marker-end:none" />
            <path
               d="m 196.741,57.364 c 5.534,0.002 10.182,-1.859 13.943,-5.583 3.845,-3.797 5.768,-8.407 5.768,-13.829 0,-2.847 -0.607,-5.595 -1.823,-8.242 -1.215,-2.649 -2.9,-4.898 -5.054,-6.746 -3.402,-2.897 -7.67,-4.345 -12.804,-4.345 -3.021,0 -5.82,0.542 -8.398,1.629 -2.576,1.087 -4.753,2.642 -6.528,4.666 -3.339,3.771 -5.006,8.206 -5.006,13.302 0,2.773 0.576,5.44 1.726,7.999 1.152,2.561 2.762,4.766 4.833,6.615 3.381,3.024 7.828,4.536 13.343,4.534 z m -0.129,-4.76 c -2.556,0 -4.647,-1.297 -6.273,-3.896 -1.775,-2.847 -2.662,-6.432 -2.662,-10.756 0,-3.822 0.76,-7.106 2.281,-9.854 1.626,-2.948 3.856,-4.422 6.686,-4.422 2.916,0 5.125,1.298 6.624,3.897 1.626,2.823 2.44,6.346 2.44,10.568 0,4.171 -0.857,7.657 -2.567,10.456 -1.626,2.672 -3.803,4.007 -6.529,4.007 z"
               id="path208"
               inkscape:connector-curvature="0"
               style="marker-start:none;marker-end:none" />
          </g>
        </g>
        <g
           id="Group_14"
           stroke-miterlimit="79.8403193612775"
           style="fill:#9b223e;stroke-width:1.63300002;stroke-miterlimit:79.84031677">
          <g
             id="Group_15">
            <path
               d="m 316.636,56.09 v -6.857 c 1.585,2.523 3.107,4.358 4.565,5.509 2.175,1.748 4.563,2.624 7.162,2.622 3.041,0.002 5.556,-1.011 7.541,-3.035 1.056,-1.074 2.07,-2.773 3.043,-5.096 2.957,5.421 6.907,8.133 11.851,8.131 1.86,0.002 3.572,-0.436 5.134,-1.31 1.565,-0.875 2.801,-2.087 3.708,-3.635 1.48,-2.499 2.218,-6.109 2.218,-10.832 v -9.18 c 0,-1.999 0.118,-3.347 0.349,-4.047 0.549,-2.123 2.144,-3.197 4.785,-3.222 h 0.667 v -5.245 h -19.934 v 5.208 c 0,0.149 0.116,0.224 0.349,0.226 l 1.425,-0.077 c 0.36,-0.025 0.809,0.181 1.347,0.618 0.539,0.437 0.904,0.893 1.093,1.369 0.381,0.874 0.571,2.935 0.571,6.183 v 5.245 c 0,3.673 -0.232,6.333 -0.698,7.982 -0.316,1.099 -0.95,1.975 -1.901,2.624 -0.866,0.574 -1.848,0.862 -2.946,0.862 -2.451,0 -4.352,-1.125 -5.705,-3.374 -1.055,-1.773 -1.584,-4.558 -1.584,-8.356 v -7.082 c 0,-1.6 0.073,-2.686 0.221,-3.261 0.338,-1.347 1.077,-2.197 2.22,-2.548 0.526,-0.173 1.318,-0.298 2.375,-0.374 v -5.245 h -19.046 v 5.245 c 1.754,0.15 2.948,0.561 3.581,1.237 0.506,0.524 0.855,1.155 1.046,1.891 0.19,0.738 0.285,1.793 0.285,3.167 v 7.757 c 0,3.422 -0.369,6.008 -1.109,7.757 -0.423,0.95 -1.045,1.718 -1.87,2.305 -0.824,0.587 -1.71,0.881 -2.661,0.881 -1.163,0 -2.288,-0.364 -3.376,-1.087 -1.087,-0.725 -1.939,-1.674 -2.551,-2.848 -0.93,-1.774 -1.393,-4.409 -1.393,-7.908 v -5.47 c 0,-1.874 0.082,-3.273 0.252,-4.198 0.168,-0.924 0.465,-1.634 0.887,-2.134 0.887,-0.9 2.188,-1.35 3.9,-1.35 v -5.245 h -20.632 v 5.245 h 1.109 c 1.88,0 3.221,0.525 4.025,1.574 0.549,0.725 0.878,1.686 0.982,2.884 0.084,0.75 0.127,1.687 0.127,2.811 v 11.168 c 0,1.998 -0.116,3.348 -0.349,4.048 -0.549,2.122 -2.143,3.208 -4.785,3.258 h -1.109 v 5.209 z"
               id="path212"
               inkscape:connector-curvature="0"
               style="marker-start:none;marker-end:none" />
            <path
               d="m 402.013,31.471 h 4.912 c -1.184,-3.173 -2.536,-5.621 -4.057,-7.344 -3.295,-3.673 -7.584,-5.508 -12.866,-5.508 -5.029,0 -9.17,1.623 -12.422,4.87 -1.819,1.823 -3.255,4.122 -4.311,6.896 -0.992,2.573 -1.488,5.183 -1.488,7.831 0,3.522 0.834,6.908 2.503,10.155 1.626,3.172 3.94,5.533 6.94,7.081 2.513,1.276 5.261,1.914 8.239,1.912 3.993,0.002 7.511,-1.087 10.554,-3.26 3.4,-2.423 5.651,-5.896 6.749,-10.418 0.486,-1.923 0.741,-4.683 0.762,-8.28 h -24.783 c 0.232,-2.423 0.771,-4.396 1.617,-5.921 0.865,-1.574 2.048,-2.824 3.548,-3.748 1.564,-0.948 3.276,-1.423 5.134,-1.424 2.726,0.001 5.007,1.026 6.846,3.073 0.928,1.025 1.637,2.386 2.123,4.085 z m -5.071,9.367 c -0.062,3.174 -0.538,5.634 -1.425,7.383 -1.312,2.622 -3.224,3.934 -5.737,3.934 -2.64,0 -4.647,-1.435 -6.021,-4.309 -0.844,-1.748 -1.331,-4.084 -1.458,-7.008 z m -5.007,21.51 h -6.465 l 5.356,11.353 h 10.807 z"
               id="path214"
               inkscape:connector-curvature="0"
               style="marker-start:none;marker-end:none" />
            <path
               d="m 427.62,56.09 v -7.869 c 1.331,2.399 2.576,4.198 3.739,5.396 2.431,2.498 5.112,3.749 8.051,3.747 2.343,0.002 4.182,-0.811 5.513,-2.435 1.372,-1.699 2.059,-3.66 2.059,-5.883 0,-1.874 -0.528,-3.41 -1.585,-4.611 -0.928,-1.049 -2.122,-1.572 -3.581,-1.572 -1.372,0 -2.44,0.487 -3.2,1.461 -0.677,0.849 -1.015,1.898 -1.013,3.148 -0.002,0.523 0.084,1.187 0.253,1.985 -1.711,0.025 -3.296,-0.448 -4.755,-1.424 -1.943,-1.399 -3.295,-3.309 -4.056,-5.733 -0.591,-1.773 -0.887,-4.121 -0.887,-7.045 v -2.848 c 0,-1.999 0.117,-3.347 0.349,-4.047 0.549,-2.123 2.143,-3.197 4.785,-3.222 h 1.236 v -5.245 h -21.739 v 5.245 h 0.95 c 1.88,0 3.222,0.525 4.025,1.574 0.549,0.725 0.887,1.686 1.014,2.884 0.063,0.725 0.095,1.663 0.095,2.811 v 11.168 c 0,1.998 -0.116,3.348 -0.349,4.048 -0.549,2.122 -2.143,3.208 -4.785,3.258 h -1.236 v 5.209 z"
               id="path216"
               inkscape:connector-curvature="0"
               style="marker-start:none;marker-end:none" />
            <path
               d="M 466.315,56.09 V 32.407 c 0,-1.599 0.079,-2.805 0.238,-3.615 0.158,-0.813 0.449,-1.504 0.872,-2.08 0.802,-1.049 2.144,-1.574 4.024,-1.574 h 1.237 V 19.893 H 450.85 v 5.245 h 1.046 c 1.88,0 3.222,0.525 4.025,1.574 0.549,0.725 0.887,1.686 1.014,2.884 0.063,0.725 0.095,1.663 0.095,2.811 v 11.168 c 0,1.998 -0.117,3.348 -0.349,4.048 -0.549,2.122 -2.143,3.208 -4.785,3.258 h -1.046 v 5.209 z m -5.133,17.425 c 1.626,0 3.01,-0.75 4.151,-2.249 0.993,-1.273 1.489,-2.785 1.489,-4.535 0,-2.023 -0.634,-3.709 -1.902,-5.058 -1.076,-1.148 -2.354,-1.723 -3.833,-1.723 -1.712,0 -3.138,0.749 -4.279,2.248 -0.971,1.273 -1.458,2.797 -1.458,4.571 0,1.974 0.635,3.637 1.902,4.984 1.077,1.175 2.388,1.762 3.93,1.762 z"
               id="path218"
               inkscape:connector-curvature="0"
               style="marker-start:none;marker-end:none" />
            <path
               d="m 505.201,31.92 h 3.961 c -0.549,-2.322 -1.098,-4.071 -1.647,-5.246 -1.311,-2.798 -3.265,-4.884 -5.864,-6.258 -2.239,-1.199 -4.69,-1.797 -7.352,-1.797 -5.071,0 -9.306,1.922 -12.709,5.77 -3.209,3.622 -4.815,8.131 -4.815,13.527 0,5.772 1.701,10.517 5.102,14.239 3.212,3.473 7.384,5.211 12.518,5.209 4.647,0.002 8.301,-1.348 10.965,-4.047 1.71,-1.723 2.566,-3.797 2.566,-6.221 0,-1.698 -0.443,-3.097 -1.33,-4.197 -0.993,-1.248 -2.24,-1.873 -3.741,-1.873 -1.479,0 -2.651,0.637 -3.517,1.911 -0.718,1.024 -1.078,2.187 -1.078,3.486 0,1.523 0.54,2.859 1.617,4.008 -1.184,1.325 -2.651,1.988 -4.404,1.988 -2.558,0 -4.606,-1.338 -6.148,-4.011 -1.354,-2.348 -2.03,-5.358 -2.03,-9.031 0,-4.62 0.962,-8.355 2.885,-11.203 1.753,-2.573 3.96,-3.86 6.622,-3.861 2.536,0.001 4.66,1.126 6.37,3.374 0.846,1.124 1.522,2.536 2.029,4.233 z"
               id="path220"
               inkscape:connector-curvature="0"
               style="marker-start:none;marker-end:none" />
            <path
               d="m 551.883,34.732 h 3.993 v -6.746 c 0,-1.598 -0.133,-2.885 -0.396,-3.859 -0.265,-0.976 -0.724,-1.85 -1.379,-2.624 -1.605,-1.923 -3.909,-2.884 -6.908,-2.884 -4.458,0 -7.469,2.384 -9.032,7.157 -1.733,-1.9 -3.253,-3.299 -4.563,-4.199 -2.98,-1.973 -6.191,-2.958 -9.634,-2.958 -3.17,0 -5.853,1.235 -8.05,3.709 -1.923,2.174 -2.884,4.696 -2.884,7.569 0,3.897 1.51,6.845 4.532,8.844 1.711,1.125 4.405,2.099 8.081,2.922 0.844,0.2 3.052,0.626 6.624,1.274 3.719,0.649 5.577,2.185 5.577,4.609 0,1.749 -0.772,3.135 -2.314,4.16 -1.288,0.849 -2.873,1.274 -4.753,1.274 -2.493,0 -5.018,-0.701 -7.574,-2.099 0.866,-1.174 1.299,-2.373 1.299,-3.596 0,-1.401 -0.485,-2.537 -1.458,-3.411 -0.782,-0.699 -1.763,-1.049 -2.946,-1.049 -1.438,0 -2.547,0.5 -3.329,1.499 -0.844,1.05 -1.268,2.248 -1.268,3.597 0,2.05 0.783,3.884 2.345,5.508 2.515,2.625 6.942,3.937 13.28,3.935 5.767,0.002 9.96,-1.11 12.58,-3.335 1.544,-1.325 2.557,-3.048 3.043,-5.17 0.338,-1.449 0.506,-3.548 0.506,-6.296 v -10.23 c 0.021,-2.648 0.054,-4.235 0.097,-4.76 0.105,-1.948 0.79,-2.922 2.059,-2.922 1.647,0 2.472,1.686 2.472,5.059 z m -14.166,5.545 c -2.028,-1.2 -4.151,-2.148 -6.37,-2.848 -2.747,-0.849 -4.543,-1.623 -5.387,-2.324 -1.353,-1.098 -2.029,-2.548 -2.029,-4.346 0,-1.576 0.539,-2.835 1.617,-3.784 0.888,-0.749 1.934,-1.125 3.138,-1.125 1.309,0 2.63,0.338 3.96,1.012 1.331,0.675 2.399,1.549 3.202,2.623 1.351,1.823 2.027,4.234 2.027,7.232 z"
               id="path222"
               inkscape:connector-curvature="0"
               style="marker-start:none;marker-end:none" />
          </g>
        </g>
        <g
           id="Group_16"
           stroke-miterlimit="79.8403193612775"
           style="fill:#c02659;stroke-width:2.5079999;stroke-miterlimit:79.84031677">
          <g
             id="Group_17">
            <path
               d="m 284.105,22.694 5.38,-2.765 -4.842,-9.148 c -1.147,-2.169 -2.25,-3.822 -3.305,-4.961 -1.055,-1.139 -2.302,-2.007 -3.739,-2.602 -3.545,-1.498 -7.338,-1.208 -11.381,0.869 -6.005,3.086 -8.35,8.407 -7.03,15.961 -3.698,-1.376 -6.752,-2.221 -9.162,-2.532 -5.431,-0.616 -10.465,0.271 -15.106,2.656 -4.269,2.194 -6.997,5.729 -8.183,10.604 -1.03,4.281 -0.515,8.37 1.55,12.265 2.795,5.286 6.947,8.239 12.454,8.856 3.111,0.341 7.441,-0.203 12.986,-1.631 1.282,-0.313 4.562,-1.268 9.839,-2.859 5.476,-1.695 9.083,-0.898 10.823,2.389 1.257,2.372 1.214,4.787 -0.13,7.244 -1.128,2.044 -2.957,3.718 -5.491,5.02 -3.359,1.725 -7.263,2.525 -11.711,2.398 0.324,-2.193 0.046,-4.119 -0.833,-5.779 -1.004,-1.899 -2.475,-3.103 -4.412,-3.615 -1.555,-0.408 -3.128,-0.202 -4.723,0.617 -1.936,0.995 -3.072,2.441 -3.408,4.337 -0.384,2.009 -0.094,3.929 0.874,5.757 1.471,2.779 3.841,4.727 7.114,5.848 5.271,1.816 12.177,0.531 20.716,-3.859 7.773,-3.993 12.625,-8.404 14.559,-13.235 1.126,-2.864 1.256,-5.904 0.387,-9.12 -0.586,-2.199 -1.864,-5.161 -3.838,-8.889 l -7.344,-13.875 c -1.873,-3.606 -2.969,-5.781 -3.288,-6.521 -1.256,-2.716 -1.031,-4.512 0.678,-5.391 2.219,-1.14 4.54,0.576 6.962,5.15 z M 269,40.024 c -3.594,-0.222 -7.137,-0.039 -10.627,0.548 -4.311,0.75 -7.287,0.944 -8.928,0.579 -2.61,-0.554 -4.561,-2.051 -5.853,-4.49 -1.129,-2.136 -1.309,-4.219 -0.539,-6.253 0.658,-1.631 1.799,-2.863 3.42,-3.696 1.766,-0.908 3.788,-1.363 6.064,-1.371 2.279,-0.008 4.344,0.439 6.196,1.34 3.132,1.538 5.773,4.34 7.925,8.405 z"
               id="path226"
               inkscape:connector-curvature="0"
               style="marker-start:none;marker-end:none" />
          </g>
        </g>
      </g>
    </g>
  </g>
</svg>
