<?xml version="1.0" encoding="UTF-8" standalone="no"?>
<!--?xml version="1.0" standalone="no"?-->

<svg
   xmlns:dc="http://purl.org/dc/elements/1.1/"
   xmlns:cc="http://creativecommons.org/ns#"
   xmlns:rdf="http://www.w3.org/1999/02/22-rdf-syntax-ns#"
   xmlns:svg="http://www.w3.org/2000/svg"
   xmlns="http://www.w3.org/2000/svg"
   xmlns:sodipodi="http://sodipodi.sourceforge.net/DTD/sodipodi-0.dtd"
   xmlns:inkscape="http://www.inkscape.org/namespaces/inkscape"
   version="1.0"
   width="64"
   height="64"
   viewBox="0 0 51.200002 51.2">

  <defs
     id="defs29" />

  <path
     style="opacity:1;fill:#03A388;fill-opacity:1;stroke:none;stroke-width:25.39999962;stroke-linecap:round;stroke-linejoin:round;stroke-miterlimit:4;stroke-dasharray:none;stroke-opacity:1"
     d="M 25.570194,0.34940346 C 18.670088,0.34936058 13.076586,4.8111046 13.076672,7.941081 c 0.0021,0.7782763 0.357428,1.5480703 1.044079,2.261304 8.119918,5.646111 15.751024,5.055981 22.888978,0 0.690034,-0.7129055 1.04882,-1.4827132 1.053989,-2.261304 8.5e-5,-3.1299391 -5.593504,-7.59166433 -12.493524,-7.59167754 z M 36.907426,10.717612 c -0.05524,0.06489 -0.112178,0.129693 -0.172649,0.193705 -6.966369,5.055982 -14.414096,5.646111 -22.338826,0 -0.05957,-0.0634 -0.115728,-0.127463 -0.170173,-0.191723 A 12.193194,12.193194 0 0 0 13.376891,15.134945 12.193194,12.193194 0 0 0 25.570194,27.328247 12.193194,12.193194 0 0 0 37.763497,15.134945 12.193194,12.193194 0 0 0 36.907426,10.717612 Z M 18.855395,27.058495 C 9.4764172,29.322267 3.0873885,36.022244 3.0760576,43.605719 c 0.07233,9.316297 2.8627649,7.502293 7.9642274,6.103463 a 14.69544,14.69544 0 0 1 -0.0079,-0.07877 3.1143664,3.8811115 18.339829 0 0 1.788434,-1.439912 3.1143664,3.8811115 18.339829 0 0 -0.195441,-5.308576 3.1143664,3.8811115 18.339829 0 0 -0.765905,-0.491943 14.69544,14.69544 0 0 1 13.710746,-9.452937 14.69544,14.69544 0 0 1 13.715702,9.427671 3.8811115,3.1143664 71.660176 0 0 -0.833529,0.517209 3.8811115,3.1143664 71.660176 0 0 -0.195439,5.308576 3.8811115,3.1143664 71.660176 0 0 1.853083,1.46394 14.69544,14.69544 0 0 1 -0.0048,0.03543 c 5.087864,1.423044 7.947399,3.10305 8.018726,-6.084142 -0.01136,-7.583475 -6.400606,-14.283451 -15.779584,-16.547223 -1.824246,1.697685 -4.222815,2.642863 -6.714801,2.64599 -0.0099,0 -0.01984,-1.2e-4 -0.02972,-2.47e-4 -0.0099,4.8e-5 -0.01982,2.47e-4 -0.02973,2.47e-4 -2.491983,-0.0032 -4.890554,-0.948305 -6.714799,-2.64599 z m 6.714799,9.361288 a 11.212705,11.212705 0 0 0 -7.533715,2.924906 l 4.861717,4.670982 a 4.5020707,4.5020707 0 0 1 2.671998,-0.885052 4.5020707,4.5020707 0 0 1 2.61577,0.844676 l 4.768828,-4.768825 a 11.212705,11.212705 0 0 0 -7.384598,-2.786687 z m 8.795032,4.259295 -4.828027,4.828029 a 4.5020707,4.5020707 0 0 1 0.535291,2.12556 4.5020707,4.5020707 0 0 1 -0.392613,1.824847 c 2.581725,-0.797979 4.928686,-0.81092 7.01799,-0.513989 a 11.212705,11.212705 0 0 0 0.08521,-1.310858 11.212705,11.212705 0 0 0 -2.417853,-6.953589 z m -17.705494,0.170174 a 11.212705,11.212705 0 0 0 -2.302174,6.783415 11.212705,11.212705 0 0 0 0.09785,1.369563 c 2.111428,-0.260912 4.495661,-0.18214 7.137138,0.733209 a 4.5020707,4.5020707 0 0 1 -0.524144,-2.102772 4.5020707,4.5020707 0 0 1 0.502595,-2.064874 l -4.911258,-4.718541 z m 8.910462,4.150058 a 2.6332864,2.6332864 0 0 0 -2.633111,2.633357 2.6332864,2.6332864 0 0 0 2.633111,2.63311 2.6332864,2.6332864 0 0 0 2.633357,-2.63311 2.6332864,2.6332864 0 0 0 -2.633357,-2.633357 z"/>
</svg>
